<svg width="245" height="60" viewBox="0 0 245 60" fill="none" xmlns="http://www.w3.org/2000/svg">
<rect width="60" height="60" rx="12" fill="white"/>
<path d="M20.72 26.85V23.99C20.72 22.8854 21.6154 21.99 22.72 21.99H46.49C43.82 17.79 39.14 15 33.8 15H14V45H19.72C20.2723 45 20.72 44.5523 20.72 44V29.88H33.44C34.7821 29.88 35.87 30.9679 35.87 32.31V32.31C35.87 33.6521 34.7821 34.74 33.44 34.74H26.78V44C26.78 44.5523 27.2277 45 27.78 45H33.8C42.08 45 48.8 38.28 48.8 30C48.8 28.92 48.68 27.87 48.47 26.85H20.72Z" fill="url(#paint0_linear_4701_2200)"/>
<path d="M81.05 35V25.1H87.5C90.2 25.1 92.9 26.3 92.9 29.675V30.35C92.9 33.725 90.2 35 87.5 35H81.05ZM83.6 33.35H86.75C88.55 33.35 90.35 32.75 90.35 30.35V29.675C90.35 27.275 88.55 26.675 86.75 26.675H83.6V33.35ZM95.4447 35L100.395 25.1H103.845L108.795 35H106.095L104.67 32.15H99.5697L98.1447 35H95.4447ZM100.395 30.5H103.845L102.12 27.05L100.395 30.5ZM109.245 26.75V25.1H121.995V26.75H116.895V35H114.345V26.75H109.245ZM122.453 35L127.403 25.1H130.853L135.803 35H133.103L131.678 32.15H126.578L125.153 35H122.453ZM127.403 30.5H130.853L129.128 27.05L127.403 30.5ZM146.754 35V25.1H157.854V26.75H149.304V28.775H156.954V30.425H149.304V35H146.754ZM161.459 32.975V25.1H164.009V32.825C164.009 33.35 164.459 33.35 164.909 33.35H169.859C170.309 33.35 170.759 33.35 170.759 32.825V25.1H173.309V32.975C173.309 35 171.509 35 169.709 35H165.059C163.259 35 161.459 35 161.459 32.975ZM177.205 35V33.35H185.605C186.055 33.35 186.505 33.35 186.505 32.825V30.95C186.505 30.425 186.055 30.425 185.605 30.425H180.805C179.005 30.425 177.205 30.425 177.205 28.4V27.125C177.205 25.1 179.005 25.1 180.805 25.1H188.305V26.75H180.655C180.205 26.75 179.755 26.75 179.755 27.275V28.25C179.755 28.775 180.205 28.775 180.655 28.775H185.455C187.255 28.775 189.055 28.775 189.055 30.8V32.975C189.055 35 187.255 35 185.455 35H177.205ZM192.95 35V25.1H195.5V35H192.95ZM199.394 32.975V27.125C199.394 25.1 201.194 25.1 202.994 25.1H207.644C209.444 25.1 211.244 25.1 211.244 27.125V32.975C211.244 35 209.444 35 207.644 35H202.994C201.194 35 199.394 35 199.394 32.975ZM201.944 32.825C201.944 33.35 202.394 33.35 202.844 33.35H207.794C208.244 33.35 208.694 33.35 208.694 32.825V27.275C208.694 26.75 208.244 26.75 207.794 26.75H202.844C202.394 26.75 201.944 26.75 201.944 27.275V32.825ZM215.139 35V25.1H217.989L224.439 32.15V25.1H226.989V35H224.139L217.689 27.95V35H215.139Z" fill="white"/>
<defs>
<linearGradient id="paint0_linear_4701_2200" x1="31.4" y1="15" x2="31.4" y2="45" gradientUnits="userSpaceOnUse">
<stop stop-color="#6F6AF8"/>
<stop offset="1" stop-color="#4842F1"/>
</linearGradient>
</defs>
</svg>
