<svg xmlns="http://www.w3.org/2000/svg">
  <symbol id="add" viewBox="0 0 24 24" fill="none">
    <path d="M12 5V19M5 12H19" stroke-width="2" stroke-linecap="round" stroke-linejoin="round"/>
  </symbol>
  <symbol id="search" viewBox="0 0 24 24" fill="none">
    <path d="M21 21L15 15M3 10C3 10.9193 3.18106 11.8295 3.53284 12.6788C3.88463 13.5281 4.40024 14.2997 5.05025 14.9497C5.70026 15.5998 6.47194 16.1154 7.32122 16.4672C8.1705 16.8189 9.08075 17 10 17C10.9193 17 11.8295 16.8189 12.6788 16.4672C13.5281 16.1154 14.2997 15.5998 14.9497 14.9497C15.5998 14.2997 16.1154 13.5281 16.4672 12.6788C16.8189 11.8295 17 10.9193 17 10C17 9.08075 16.8189 8.1705 16.4672 7.32122C16.1154 6.47194 15.5998 5.70026 14.9497 5.05025C14.2997 4.40024 13.5281 3.88463 12.6788 3.53284C11.8295 3.18106 10.9193 3 10 3C9.08075 3 8.1705 3.18106 7.32122 3.53284C6.47194 3.88463 5.70026 4.40024 5.05025 5.05025C4.40024 5.70026 3.88463 6.47194 3.53284 7.32122C3.18106 8.1705 3 9.08075 3 10Z" stroke-width="2" stroke-linecap="round" stroke-linejoin="round"/>
  </symbol>
  <symbol id="info" viewBox="0 0 24 24" fill="none">
    <path d="M12 9H12.01M3 12C3 13.1819 3.23279 14.3522 3.68508 15.4442C4.13738 16.5361 4.80031 17.5282 5.63604 18.364C6.47177 19.1997 7.46392 19.8626 8.55585 20.3149C9.64778 20.7672 10.8181 21 12 21C13.1819 21 14.3522 20.7672 15.4442 20.3149C16.5361 19.8626 17.5282 19.1997 18.364 18.364C19.1997 17.5282 19.8626 16.5361 20.3149 15.4442C20.7672 14.3522 21 13.1819 21 12C21 9.61305 20.0518 7.32387 18.364 5.63604C16.6761 3.94821 14.3869 3 12 3C9.61305 3 7.32387 3.94821 5.63604 5.63604C3.94821 7.32387 3 9.61305 3 12Z" stroke-width="2" stroke-linecap="round" stroke-linejoin="round"/>
    <path d="M11 12H12V16H13" stroke-width="2" stroke-linecap="round" stroke-linejoin="round"/>
  </symbol>
  <symbol id="notification" viewBox="0 0 24 24" fill="none">
    <path d="M9 17V18C9 18.7956 9.31607 19.5587 9.87868 20.1213C10.4413 20.6839 11.2044 21 12 21C12.7956 21 13.5587 20.6839 14.1213 20.1213C14.6839 19.5587 15 18.7956 15 18V17M10 5C10 4.46957 10.2107 3.96086 10.5858 3.58579C10.9609 3.21071 11.4696 3 12 3C12.5304 3 13.0391 3.21071 13.4142 3.58579C13.7893 3.96086 14 4.46957 14 5C15.1484 5.54303 16.1274 6.38833 16.8321 7.4453C17.5367 8.50227 17.9404 9.73107 18 11V14C18.0753 14.6217 18.2954 15.2171 18.6428 15.7381C18.9902 16.2592 19.4551 16.6914 20 17H4C4.54494 16.6914 5.00981 16.2592 5.35719 15.7381C5.70457 15.2171 5.92474 14.6217 6 14V11C6.05956 9.73107 6.4633 8.50227 7.16795 7.4453C7.8726 6.38833 8.85159 5.54303 10 5Z" stroke-width="2" stroke-linecap="round" stroke-linejoin="round"/>
  </symbol>
  <symbol id="angle-down" viewBox="0 0 24 24" fill="none">
    <path d="M6 9L12 15L18 9" stroke-width="2" stroke-linecap="round" stroke-linejoin="round"/>
  </symbol>
  <symbol id="download" viewBox="0 0 24 24" fill="none">
    <path d="M4 17V19C4 19.5304 4.21071 20.0391 4.58579 20.4142C4.96086 20.7893 5.46957 21 6 21H18C18.5304 21 19.0391 20.7893 19.4142 20.4142C19.7893 20.0391 20 19.5304 20 19V17M7 11L12 16M12 16L17 11M12 16V4" stroke-width="2" stroke-linecap="round" stroke-linejoin="round"/>
  </symbol>
  <symbol id="sign" viewBox="0 0 24 24" fill="none">
    <path d="M5 12L10 17L20 7" stroke-width="2" stroke-linecap="round" stroke-linejoin="round"/>
  </symbol>
  <symbol id="users-group" viewBox="0 0 32 32" fill="none">
    <path d="M10.6667 28V26.6667C10.6667 25.9594 10.9476 25.2811 11.4477 24.781C11.9478 24.281 12.6261 24 13.3333 24H18.6667C19.3739 24 20.0522 24.281 20.5523 24.781C21.0524 25.2811 21.3333 25.9594 21.3333 26.6667V28M22.6667 13.3333H25.3333C26.0406 13.3333 26.7189 13.6143 27.219 14.1144C27.719 14.6145 28 15.2928 28 16V17.3333M4 17.3333V16C4 15.2928 4.28095 14.6145 4.78105 14.1144C5.28115 13.6143 5.95942 13.3333 6.66667 13.3333H9.33333M13.3333 17.3333C13.3333 18.0406 13.6143 18.7189 14.1144 19.219C14.6145 19.719 15.2928 20 16 20C16.7072 20 17.3855 19.719 17.8856 19.219C18.3857 18.7189 18.6667 18.0406 18.6667 17.3333C18.6667 16.6261 18.3857 15.9478 17.8856 15.4477C17.3855 14.9476 16.7072 14.6667 16 14.6667C15.2928 14.6667 14.6145 14.9476 14.1144 15.4477C13.6143 15.9478 13.3333 16.6261 13.3333 17.3333ZM20 6.66667C20 7.37391 20.281 8.05219 20.781 8.55229C21.2811 9.05238 21.9594 9.33333 22.6667 9.33333C23.3739 9.33333 24.0522 9.05238 24.5523 8.55229C25.0524 8.05219 25.3333 7.37391 25.3333 6.66667C25.3333 5.95942 25.0524 5.28115 24.5523 4.78105C24.0522 4.28095 23.3739 4 22.6667 4C21.9594 4 21.2811 4.28095 20.781 4.78105C20.281 5.28115 20 5.95942 20 6.66667ZM6.66667 6.66667C6.66667 7.37391 6.94762 8.05219 7.44772 8.55229C7.94781 9.05238 8.62609 9.33333 9.33333 9.33333C10.0406 9.33333 10.7189 9.05238 11.219 8.55229C11.719 8.05219 12 7.37391 12 6.66667C12 5.95942 11.719 5.28115 11.219 4.78105C10.7189 4.28095 10.0406 4 9.33333 4C8.62609 4 7.94781 4.28095 7.44772 4.78105C6.94762 5.28115 6.66667 5.95942 6.66667 6.66667Z" stroke-width="2.66667" stroke-linecap="round" stroke-linejoin="round"/>
  </symbol>
  <symbol id="clipboard" viewBox="0 0 32 32" fill="none">
    <path d="M12.0003 6.6665H9.33366C8.62641 6.6665 7.94814 6.94746 7.44804 7.44755C6.94794 7.94765 6.66699 8.62593 6.66699 9.33317V25.3332C6.66699 26.0404 6.94794 26.7187 7.44804 27.2188C7.94814 27.7189 8.62641 27.9998 9.33366 27.9998H22.667C23.3742 27.9998 24.0525 27.7189 24.5526 27.2188C25.0527 26.7187 25.3337 26.0404 25.3337 25.3332V9.33317C25.3337 8.62593 25.0527 7.94765 24.5526 7.44755C24.0525 6.94746 23.3742 6.6665 22.667 6.6665H20.0003" stroke-width="2.66667" stroke-linecap="round" stroke-linejoin="round"/>
    <path d="M12 16H12.0133M17.3333 16H20M12 21.3333H12.0133M17.3333 21.3333H20M12 6.66667C12 5.95942 12.281 5.28115 12.781 4.78105C13.2811 4.28095 13.9594 4 14.6667 4H17.3333C18.0406 4 18.7189 4.28095 19.219 4.78105C19.719 5.28115 20 5.95942 20 6.66667C20 7.37391 19.719 8.05219 19.219 8.55229C18.7189 9.05238 18.0406 9.33333 17.3333 9.33333H14.6667C13.9594 9.33333 13.2811 9.05238 12.781 8.55229C12.281 8.05219 12 7.37391 12 6.66667Z" stroke-width="2.66667" stroke-linecap="round" stroke-linejoin="round"/>
  </symbol>
  <svg id="setting" viewBox="0 0 32 32" fill="none">
    <path d="M13.7667 5.756C14.3347 3.41467 17.6653 3.41467 18.2333 5.756C18.3186 6.10773 18.4856 6.43437 18.7209 6.70933C18.9563 6.98429 19.2532 7.19981 19.5875 7.33833C19.9219 7.47685 20.2842 7.53447 20.645 7.50649C21.0059 7.47852 21.355 7.36574 21.664 7.17733C23.7213 5.924 26.0773 8.27867 24.824 10.3373C24.6359 10.6462 24.5233 10.9951 24.4954 11.3557C24.4674 11.7163 24.525 12.0784 24.6634 12.4125C24.8017 12.7467 25.017 13.0434 25.2916 13.2787C25.5663 13.514 25.8926 13.6812 26.244 13.7667C28.5853 14.3347 28.5853 17.6653 26.244 18.2333C25.8923 18.3186 25.5656 18.4856 25.2907 18.7209C25.0157 18.9563 24.8002 19.2532 24.6617 19.5875C24.5232 19.9219 24.4655 20.2842 24.4935 20.645C24.5215 21.0059 24.6343 21.355 24.8227 21.664C26.076 23.7213 23.7213 26.0773 21.6627 24.824C21.3538 24.6359 21.0049 24.5233 20.6443 24.4954C20.2837 24.4674 19.9216 24.525 19.5875 24.6634C19.2533 24.8017 18.9566 25.017 18.7213 25.2916C18.486 25.5663 18.3188 25.8926 18.2333 26.244C17.6653 28.5853 14.3347 28.5853 13.7667 26.244C13.6814 25.8923 13.5144 25.5656 13.2791 25.2907C13.0437 25.0157 12.7468 24.8002 12.4125 24.6617C12.0781 24.5232 11.7158 24.4655 11.355 24.4935C10.9941 24.5215 10.645 24.6343 10.336 24.8227C8.27867 26.076 5.92267 23.7213 7.176 21.6627C7.36414 21.3538 7.47673 21.0049 7.50465 20.6443C7.53256 20.2837 7.47499 19.9216 7.33663 19.5875C7.19827 19.2533 6.98301 18.9566 6.70836 18.7213C6.43371 18.486 6.10742 18.3188 5.756 18.2333C3.41467 17.6653 3.41467 14.3347 5.756 13.7667C6.10773 13.6814 6.43437 13.5144 6.70933 13.2791C6.98429 13.0437 7.19981 12.7468 7.33833 12.4125C7.47685 12.0781 7.53447 11.7158 7.50649 11.355C7.47852 10.9941 7.36574 10.645 7.17733 10.336C5.924 8.27867 8.27867 5.92267 10.3373 7.176C11.6707 7.98667 13.3987 7.26933 13.7667 5.756Z" stroke-width="2.66667" stroke-linecap="round" stroke-linejoin="round"/>
    <path d="M12 16C12 17.0609 12.4214 18.0783 13.1716 18.8284C13.9217 19.5786 14.9391 20 16 20C17.0609 20 18.0783 19.5786 18.8284 18.8284C19.5786 18.0783 20 17.0609 20 16C20 14.9391 19.5786 13.9217 18.8284 13.1716C18.0783 12.4214 17.0609 12 16 12C14.9391 12 13.9217 12.4214 13.1716 13.1716C12.4214 13.9217 12 14.9391 12 16Z" stroke-width="2.66667" stroke-linecap="round" stroke-linejoin="round"/>
  </svg>
  <symbol id="exit" viewBox="0 0 24 24" fill="none">
    <path d="M10 8V6C10 5.46957 10.2107 4.96086 10.5858 4.58579C10.9609 4.21071 11.4696 4 12 4H19C19.5304 4 20.0391 4.21071 20.4142 4.58579C20.7893 4.96086 21 5.46957 21 6V18C21 18.5304 20.7893 19.0391 20.4142 19.4142C20.0391 19.7893 19.5304 20 19 20H12C11.4696 20 10.9609 19.7893 10.5858 19.4142C10.2107 19.0391 10 18.5304 10 18V16" stroke-width="2" stroke-linecap="round" stroke-linejoin="round"/>
    <path d="M15 12H3M3 12L6 9M3 12L6 15" stroke-width="2" stroke-linecap="round" stroke-linejoin="round"/>
  </symbol>
  <symbol id="edit" viewBox="0 0 32 32">
<path d="M19.662 10.667l1.671 1.671-16.142 16.107h-1.636v-1.636l16.107-16.142zM26.062 0c-0.444 0-0.907 0.178-1.244 0.516l-3.253 3.253 6.667 6.667 3.253-3.253c0.693-0.693 0.693-1.849 0-2.507l-4.16-4.16c-0.356-0.356-0.8-0.516-1.262-0.516zM19.662 5.671l-19.662 19.662v6.667h6.667l19.662-19.662-6.667-6.667z"></path>
</symbol>
  <symbol id="delete" viewBox="0 0 24 24" fill="none">
    <path d="M4 7H20M10 11V17M14 11V17M5 7L6 19C6 19.5304 6.21071 20.0391 6.58579 20.4142C6.96086 20.7893 7.46957 21 8 21H16C16.5304 21 17.0391 20.7893 17.4142 20.4142C17.7893 20.0391 18 19.5304 18 19L19 7M9 7V4C9 3.73478 9.10536 3.48043 9.29289 3.29289C9.48043 3.10536 9.73478 3 10 3H14C14.2652 3 14.5196 3.10536 14.7071 3.29289C14.8946 3.48043 15 3.73478 15 4V7" stroke-width="2" stroke-linecap="round" stroke-linejoin="round"/>
  </symbol>
  <symbol id="upload" viewBox="0 0 48 48" >
    <path fill="none" d="M8 34V38C8 39.0609 8.42143 40.0783 9.17157 40.8284C9.92172 41.5786 10.9391 42 12 42H36C37.0609 42 38.0783 41.5786 38.8284 40.8284C39.5786 40.0783 40 39.0609 40 38V34M14 18L24 8M24 8L34 18M24 8V32" stroke-width="4" stroke-linecap="round" stroke-linejoin="round"/>
  </symbol>
  <symbol id="question" viewBox="0 0 32 32">
<path d="M16 0.087c-8.775 0-15.913 7.138-15.913 15.913s7.138 15.913 15.913 15.913c8.775 0 15.913-7.138 15.913-15.913s-7.138-15.913-15.913-15.913zM15.985 25.159c-1.017 0-1.841-0.824-1.841-1.841s0.824-1.841 1.841-1.841c1.017 0 1.841 0.824 1.841 1.841s-0.824 1.841-1.841 1.841zM19.939 15.914c-1.046 0.779-2.165 1.411-2.383 2.846v0.925h-3.283v-1.094c0.145-2.117 1.143-3.065 2.115-3.819 0.949-0.753 1.775-1.312 1.775-2.626 0-1.484-0.778-2.189-2.066-2.189-1.751 0-2.48 1.435-2.505 3.162h-3.575c0.073-3.478 2.359-6.007 5.91-6.007 4.597 0 6.056 2.821 6.056 4.693 0 2.36-0.997 3.308-2.043 4.11z"></path>
</symbol>
  <symbol id="calendar" viewBox="0 0 24 24" fill="none">
    <path d="M16 3V7M8 3V7M4 11H20M4 7C4 6.46957 4.21071 5.96086 4.58579 5.58579C4.96086 5.21071 5.46957 5 6 5H18C18.5304 5 19.0391 5.21071 19.4142 5.58579C19.7893 5.96086 20 6.46957 20 7V19C20 19.5304 19.7893 20.0391 19.4142 20.4142C19.0391 20.7893 18.5304 21 18 21H6C5.46957 21 4.96086 20.7893 4.58579 20.4142C4.21071 20.0391 4 19.5304 4 19V7Z" stroke-width="2" stroke-linecap="round" stroke-linejoin="round"/>
    <path d="M8 15H10V17H8V15Z" stroke-width="2" stroke-linecap="round" stroke-linejoin="round"/>
  </symbol>
  <symbol id="clock" viewBox="0 0 24 24" fill="none">
    <path d="M3 12C3 13.1819 3.23279 14.3522 3.68508 15.4442C4.13738 16.5361 4.80031 17.5282 5.63604 18.364C6.47177 19.1997 7.46392 19.8626 8.55585 20.3149C9.64778 20.7672 10.8181 21 12 21C13.1819 21 14.3522 20.7672 15.4442 20.3149C16.5361 19.8626 17.5282 19.1997 18.364 18.364C19.1997 17.5282 19.8626 16.5361 20.3149 15.4442C20.7672 14.3522 21 13.1819 21 12C21 9.61305 20.0518 7.32387 18.364 5.63604C16.6761 3.94821 14.3869 3 12 3C9.61305 3 7.32387 3.94821 5.63604 5.63604C3.94821 7.32387 3 9.61305 3 12Z" stroke-width="2" stroke-linecap="round" stroke-linejoin="round"/>
    <path d="M12 7V12L15 15" stroke-width="2" stroke-linecap="round" stroke-linejoin="round"/>
  </symbol>
  <symbol id="ellipsis-vertical" viewBox="0 0 24 24" fill="none">
    <path d="M11 12C11 12.2652 11.1054 12.5196 11.2929 12.7071C11.4804 12.8946 11.7348 13 12 13C12.2652 13 12.5196 12.8946 12.7071 12.7071C12.8946 12.5196 13 12.2652 13 12C13 11.7348 12.8946 11.4804 12.7071 11.2929C12.5196 11.1054 12.2652 11 12 11C11.7348 11 11.4804 11.1054 11.2929 11.2929C11.1054 11.4804 11 11.7348 11 12ZM11 19C11 19.2652 11.1054 19.5196 11.2929 19.7071C11.4804 19.8946 11.7348 20 12 20C12.2652 20 12.5196 19.8946 12.7071 19.7071C12.8946 19.5196 13 19.2652 13 19C13 18.7348 12.8946 18.4804 12.7071 18.2929C12.5196 18.1054 12.2652 18 12 18C11.7348 18 11.4804 18.1054 11.2929 18.2929C11.1054 18.4804 11 18.7348 11 19ZM11 5C11 5.26522 11.1054 5.51957 11.2929 5.70711C11.4804 5.89464 11.7348 6 12 6C12.2652 6 12.5196 5.89464 12.7071 5.70711C12.8946 5.51957 13 5.26522 13 5C13 4.73478 12.8946 4.48043 12.7071 4.29289C12.5196 4.10536 12.2652 4 12 4C11.7348 4 11.4804 4.10536 11.2929 4.29289C11.1054 4.48043 11 4.73478 11 5Z" stroke-width="2" stroke-linecap="round" stroke-linejoin="round"/>
  </symbol>
  <symbol id="spinner" viewBox="0 0 24 24">
 <circle  cx="12" cy="12" r="10" fill="none" stroke="currentColor" stroke-opacity="0.25" stroke-width="4"></circle>
  <path fill="currentColor" fill-opacity="0.75" d="M4 12a8 8 0 018-8V0C5.373 0 0 5.373 0 12h4zm2 5.291A7.962 7.962 0 014 12H0c0 3.042 1.135 5.824 3 7.938l3-2.647z"></path>
</symbol>
  <symbol id="angle-left" viewBox="0 0 24 24" fill="none">
    <path d="M15 6L9 12L15 18" stroke-width="2" stroke-linecap="round" stroke-linejoin="round"/>
  </symbol>
  <symbol id="ban" viewBox="0 0 32 32">
<path d="M27.733 16c0-2.696-0.909-5.18-2.438-7.162l-16.456 16.456c1.981 1.529 4.465 2.438 7.162 2.438 6.48 0 11.733-5.253 11.733-11.733zM5.984 22.115l16.131-16.131c-1.781-1.090-3.875-1.718-6.115-1.718-6.48 0-11.733 5.253-11.733 11.733 0 2.241 0.628 4.334 1.718 6.115zM32 16c0 8.836-7.164 16-16 16s-16-7.164-16-16c0-8.837 7.163-16 16-16s16 7.163 16 16z"></path>
</symbol>
<symbol id="align-left" viewBox="0 0 32 32">
<path d="M21.333 5.333h-21.333v-5.333h21.333v5.333zM21.333 32h-21.333v-5.333h21.333v5.333zM0 18.667h32v-5.333h-32v5.333z"></path>
</symbol>
<symbol id="apostrophe" viewBox="0 0 21 32">
<path d="M9.6 19.2l-6.4 12.8h9.6l6.4-12.8v-19.2h-19.2v19.2h9.6z"></path>
</symbol>
  <symbol id="cross" viewBox="0 0 24 24" fill="none">
    <path d="M18 6L6 18M6 6L18 18" stroke-width="2" stroke-linecap="round" stroke-linejoin="round"/>
  </symbol>
  <symbol id="arrow-right" viewBox="0 0 43 32">
<path d="M2.667 18.667c-1.6 0-2.667-1.067-2.667-2.667s1.067-2.667 2.667-2.667h30.933l-8.8-8.8c-1.067-0.8-1.067-2.667 0-3.733s2.667-1.067 3.733 0c4.533 4.267 9.067 8.8 13.333 13.333 0.533 0.533 0.8 1.067 0.8 1.867s-0.267 1.333-0.8 1.867c-4.533 4.267-8.8 8.8-13.333 13.333-1.067 1.067-2.667 1.067-3.733 0s-1.067-2.667 0-3.733l8.8-8.8h-30.933z"></path>
</symbol>
  <symbol id="arrow-up" viewBox="0 0 24 24" fill="none">
    <path d="M12 5V19M12 5L16 9M12 5L8 9" stroke-width="2" stroke-linecap="round" stroke-linejoin="round"/>
  </symbol>
  <symbol id="arrow-down" viewBox="0 0 24 24" fill="none">
    <path d="M12 5V19M12 19L16 15M12 19L8 15" stroke-width="2" stroke-linecap="round" stroke-linejoin="round"/>
  </symbol>
  <symbol id="arrow-up-arrow-down" viewBox="0 0 24 24" fill="none">
    <path d="M7 3V21M7 3L10 6M7 3L4 6M20 18L17 21M17 21L14 18M17 21V3" stroke-width="2" stroke-linecap="round" stroke-linejoin="round"/>
  </symbol>
  <symbol id="copy" viewBox="0 0 24 24" fill="none">
    <path d="M7 9.667C7 8.95967 7.28099 8.28131 7.78115 7.78115C8.28131 7.28099 8.95967 7 9.667 7H18.333C18.6832 7 19.03 7.06898 19.3536 7.20301C19.6772 7.33704 19.9712 7.53349 20.2189 7.78115C20.4665 8.0288 20.663 8.32281 20.797 8.64638C20.931 8.96996 21 9.31676 21 9.667V18.333C21 18.6832 20.931 19.03 20.797 19.3536C20.663 19.6772 20.4665 19.9712 20.2189 20.2189C19.9712 20.4665 19.6772 20.663 19.3536 20.797C19.03 20.931 18.6832 21 18.333 21H9.667C9.31676 21 8.96996 20.931 8.64638 20.797C8.32281 20.663 8.0288 20.4665 7.78115 20.2189C7.53349 19.9712 7.33704 19.6772 7.20301 19.3536C7.06898 19.03 7 18.6832 7 18.333V9.667Z" stroke-width="2" stroke-linecap="round" stroke-linejoin="round"/>
    <path d="M4.012 16.737C3.705 16.5626 3.44965 16.31 3.2719 16.0049C3.09415 15.6998 3.00034 15.3531 3 15V5C3 3.9 3.9 3 5 3H15C15.75 3 16.158 3.385 16.5 4" stroke-width="2" stroke-linecap="round" stroke-linejoin="round"/>
  </symbol>
  <symbol id="play" viewBox="0 0 24 32">
    <path d="M4.563 2.438c-0.925-0.569-2.087-0.587-3.031-0.056s-1.531 1.531-1.531 2.619v22c0 1.087 0.588 2.087 1.531 2.619s2.106 0.506 3.031-0.056l18-11c0.894-0.544 1.438-1.512 1.438-2.563s-0.544-2.012-1.438-2.563l-18-11z"></path>
  </symbol>
  <svg id="stop" viewBox="0 0 20 32">
    <path d="M3 4c-1.656 0-3 1.344-3 3v18c0 1.656 1.344 3 3 3h2c1.656 0 3-1.344 3-3v-18c0-1.656-1.344-3-3-3h-2zM15 4c-1.656 0-3 1.344-3 3v18c0 1.656 1.344 3 3 3h2c1.656 0 3-1.344 3-3v-18c0-1.656-1.344-3-3-3h-2z"></path>
  </svg>
  <svg id="audio" viewBox="0 0 32 32">
    <path fill="none" stroke-linejoin="round" stroke-linecap="round" stroke-miterlimit="4" stroke-width="2.6667" d="M18.667 4v5.333c0 0.354 0.141 0.693 0.391 0.943s0.589 0.391 0.943 0.391h5.333"></path>
    <path fill="none" stroke-linejoin="round" stroke-linecap="round" stroke-miterlimit="4" stroke-width="2.6667" d="M22.667 28h-13.333c-0.707 0-1.386-0.281-1.886-0.781s-0.781-1.178-0.781-1.886v-18.667c0-0.707 0.281-1.386 0.781-1.886s1.178-0.781 1.886-0.781h9.333l6.667 6.667v14.667c0 0.707-0.281 1.385-0.781 1.886s-1.178 0.781-1.886 0.781z"></path>
    <path fill="none" stroke-linejoin="round" stroke-linecap="round" stroke-miterlimit="4" stroke-width="2.6667" d="M16 21.333c0 0.354-0.141 0.693-0.391 0.943s-0.589 0.391-0.943 0.391c-0.354 0-0.693-0.141-0.943-0.391s-0.391-0.589-0.391-0.943c0-0.354 0.141-0.693 0.391-0.943s0.589-0.391 0.943-0.391c0.354 0 0.693 0.141 0.943 0.391s0.391 0.589 0.391 0.943zM16 21.333v-6.667l2.667 1.333"></path>
  </svg>
</svg>
